<?xml version="1.0" encoding="utf-8"?>
<!-- Generator: Adobe Illustrator 22.1.0, SVG Export Plug-In . SVG Version: 6.00 Build 0)  -->
<svg version="1.1" id="Layer_1" xmlns="http://www.w3.org/2000/svg" xmlns:xlink="http://www.w3.org/1999/xlink" x="0px" y="0px"
	 viewBox="0 0 1000 500" style="enable-background:new 0 0 1000 500;" xml:space="preserve">
<style type="text/css">
	.st0{fill-rule:evenodd;clip-rule:evenodd;fill:#FFFFFF;}
	.st1{fill:#FD3A5C;}
</style>
<g>
	<g>
		<g>
			<path class="st0" d="M179.3,249.5c4.2-2.9,14.2-7.4,25.3-7.4c12.2,0,15.9,7.1,15.9,17.6v78.2c0,8.8,4.3,13,13.1,13H253
				c8.8,0,13.1-4.2,13.1-13v-85c0-27.2-11.1-47.6-49.8-47.6c-15.7,0-27,4-37,9.1v-62.9c0-8.8-4.3-13-13.1-13h-19.3
				c-8.8,0-13.1,4.2-13.1,13v186.5c0,8.8,4.3,13,13.1,13h19.3c8.8,0,13.1-4.2,13.1-13V249.5z"/>
			<path class="st0" d="M352.2,241.6c15.6,0,21.3,10.2,21.3,38.5c0,28.3-5.7,38.5-21.3,38.5c-15.7,0-21.3-10.2-21.3-38.5
				C330.9,251.7,336.6,241.6,352.2,241.6z M352.2,354.9c52.6,0,66.8-30.6,66.8-74.8c0-44.2-14.2-74.8-66.8-74.8
				c-52.6,0-66.9,30.6-66.9,74.8C285.3,324.3,299.6,354.9,352.2,354.9z"/>
			<path class="st0" d="M450,210.7l-12.8,3.4c-8.2,2.3-11.4,6-11.4,13.3v6.5c0,8.8,4.3,13,13.1,13H450v57.8
				c0,33.4,14.5,50.2,54.9,50.2c5.4,0,10-0.5,12.8-1.1c6-1.1,11.7-5.9,11.7-14.2v-9.3c0-7.4-5.7-11.9-12.2-11.9h-2.9
				c-14.5,0-18.8-6.3-18.8-17.3v-54.1h22.2c8.8,0,13.1-4.2,13.1-13v-11.6c0-8.8-4.3-13-13.1-13h-22.2v-23.8
				c0-8.8-5.1-14.7-17.1-11.6l-14.8,4c-10.3,2.9-13.7,6-13.7,14.2V210.7z"/>
			<path class="st0" d="M606.9,222.3c0-8.8-4.2-13-13.1-13h-19.1c-8.8,0-13.1,4.2-13.1,13v146.3c0,13.3-8.3,17.8-16.5,18.7
				c-10.3,1.1-12.8,6.6-12.8,12.8v13c0,8.5,6.6,12.7,17.1,12.7c29.3,0,57.5-15.3,57.5-53.8V222.3z"/>
			<path class="st0" d="M707.8,285.5v31.4c-4.6,4.5-12.3,6.8-20.5,6.8c-9.7,0-16.5-6.3-16.5-16.7c0-11.1,5.1-17.3,17.9-19
				L707.8,285.5z M691,241.9c12.2,0,16.8,3.4,16.8,9.9v9.1l-25.9,2.6c-25.6,2.6-53.7,8.2-53.7,46.5c0,21.3,12.2,45.1,48.4,45.1
				c17.1,0,31.6-5.7,41.8-14.7l1.1,2c3.7,6.5,6.3,8.8,13.4,8.8h6c8.8,0,13.1-4.2,13.1-13v-79.1c0-31.7-9.7-53.6-60.9-53.6
				c-18.5,0-35.5,4-43.8,6.5c-5.7,1.7-10.2,6-10.2,15v7.7c0,8.5,6.5,15.3,17.9,12.8C658.9,246.4,675.9,241.9,691,241.9z"/>
			<path class="st0" d="M866,218c0-7.9-4-12.7-16.8-12.7c-16.5,0-34.1,7.4-41.2,14.2c-4-7.1-4.9-10.2-12.8-10.2h-7.1
				c-8.8,0-13.1,4.2-13.1,13v115.6c0,8.8,4.3,13,13.1,13h19.3c8.8,0,13.1-4.2,13.1-13v-87c3.7-3.4,16.8-8.2,32.7-8.2
				c8,0,12.8-4.5,12.8-13V218z"/>
		</g>
	</g>
</g>
<path class="st1" d="M626.1,111.2c-16.7-30.3-65.8-36.9-65.8-36.9s22.7,25.2-6.3,45.2c-18.3,12.6-25.6,29-17.7,46.8
	c6,13.7,18.7,19.3,32.4,21.3c-3.5-6.8-4.4-16.5-1.8-26.6c0.3-1,0.5-2.1,0.9-3c3.8,5.9,10.1,9.2,16.3,7.7
	c8.4-2.1,13.4-12.2,11.1-22.7c-0.5-2.4-1.4-4.5-2.5-6.5c0.3,0.1,0.7,0.1,1,0.2c10.5,3,15.6,18.7,11.3,35.1
	c-1.4,5.3-3.6,10.1-6.3,13.9c18-5.8,30.1-20.3,33.4-33.3C635.5,138.9,632.8,123.3,626.1,111.2z"/>
</svg>
